<?xml version="1.0" standalone="no"?>
<!DOCTYPE svg PUBLIC "-//W3C//DTD SVG 20010904//EN"
 "http://www.w3.org/TR/2001/REC-SVG-20010904/DTD/svg10.dtd">
<svg version="1.0" xmlns="http://www.w3.org/2000/svg"
 width="210.000000pt" height="204.000000pt" viewBox="0 0 210.000000 204.000000"
 preserveAspectRatio="xMidYMid meet">
<metadata>
Created by potrace 1.16, written by Peter Selinger 2001-2019
</metadata>
<g transform="translate(0.000000,204.000000) scale(0.100000,-0.100000)"
fill="#000000" stroke="none">
<path d="M990 1870 c-161 -15 -310 -75 -439 -176 -177 -138 -292 -352 -316
-585 l-7 -66 56 -5 c32 -3 63 -12 74 -21 10 -9 21 -17 24 -17 3 0 8 40 11 89
19 298 227 541 525 612 178 43 376 8 530 -95 399 -265 408 -843 16 -1122 -190
-136 -463 -162 -672 -64 -73 34 -172 103 -216 149 -32 34 -46 39 -46 17 0 -8
-16 -37 -35 -66 -19 -29 -32 -56 -29 -62 17 -28 165 -132 237 -168 126 -62
218 -83 367 -82 95 0 144 5 205 21 329 87 575 355 626 681 14 91 6 261 -17
345 -20 75 -72 189 -113 249 -138 200 -371 343 -589 361 -37 3 -78 7 -92 9
-14 1 -59 -1 -100 -4z"/>
<path d="M768 1364 c-60 -52 -154 -101 -211 -111 -25 -4 -44 -14 -54 -29 -14
-22 -14 -26 2 -50 15 -24 22 -26 59 -21 136 19 316 136 316 205 0 20 -29 52
-47 52 -6 0 -35 -21 -65 -46z"/>
<path d="M1277 1392 c-29 -32 -20 -60 33 -111 56 -53 132 -95 211 -116 76 -21
96 -19 115 10 15 23 15 27 1 49 -10 15 -29 25 -54 29 -57 10 -151 59 -211 111
-59 51 -71 54 -95 28z"/>
<path d="M743 1075 c-30 -21 -44 -75 -32 -120 13 -45 43 -65 97 -65 95 0 136
110 65 176 -31 28 -96 33 -130 9z"/>
<path d="M1259 1061 c-66 -66 -20 -171 74 -171 38 0 49 5 71 31 59 69 15 169
-74 169 -33 0 -48 -6 -71 -29z"/>
<path d="M264 923 c-30 -30 -112 -161 -124 -199 -46 -137 95 -253 221 -182 41
23 79 85 79 129 0 32 -39 114 -88 186 -54 80 -65 88 -88 66z"/>
<path d="M985 741 c-85 -22 -175 -98 -175 -147 0 -31 42 -74 72 -74 13 0 45
15 71 34 82 58 165 57 242 -4 46 -36 78 -38 110 -5 53 52 15 122 -94 173 -59
27 -169 38 -226 23z"/>
</g>
</svg>
